<?xml version="1.0" encoding="UTF-8" standalone="no"?>
<!DOCTYPE svg PUBLIC "-//W3C//DTD SVG 1.1//EN"
 "http://www.w3.org/Graphics/SVG/1.1/DTD/svg11.dtd">
<!-- Generated by graphviz version 9.0.0 (20230911.1827)
 -->
<!-- Pages: 1 -->
<svg width="586pt" height="476pt"
 viewBox="0.00 0.00 585.62 476.00" xmlns="http://www.w3.org/2000/svg" xmlns:xlink="http://www.w3.org/1999/xlink">
<g id="graph0" class="graph" transform="scale(1 1) rotate(0) translate(4 472)">
<polygon fill="white" stroke="none" points="-4,4 -4,-472 581.62,-472 581.62,4 -4,4"/>
<!-- bvb -->
<g id="node1" class="node">
<title>bvb</title>
<ellipse fill="none" stroke="black" cx="150.62" cy="-450" rx="27" ry="18"/>
<text text-anchor="middle" x="150.62" y="-444.95" font-family="Times,serif" font-size="14.00">bvb</text>
</g>
<!-- cmg -->
<g id="node2" class="node">
<title>cmg</title>
<ellipse fill="none" stroke="black" cx="501.62" cy="-378" rx="27.3" ry="18"/>
<text text-anchor="middle" x="501.62" y="-372.95" font-family="Times,serif" font-size="14.00">cmg</text>
</g>
<!-- bvb&#45;&#45;cmg -->
<g id="edge1" class="edge">
<title>bvb&#45;&#45;cmg</title>
<path fill="none" stroke="black" d="M176.43,-443.85C241.34,-430.91 410.82,-397.11 475.78,-384.15"/>
</g>
<!-- hfx -->
<g id="node3" class="node">
<title>hfx</title>
<ellipse fill="none" stroke="black" cx="205.62" cy="-306" rx="27" ry="18"/>
<text text-anchor="middle" x="205.62" y="-300.95" font-family="Times,serif" font-size="14.00">hfx</text>
</g>
<!-- bvb&#45;&#45;hfx -->
<g id="edge2" class="edge">
<title>bvb&#45;&#45;hfx</title>
<path fill="none" stroke="black" d="M157.15,-432.15C167.73,-404.82 188.53,-351.14 199.11,-323.82"/>
</g>
<!-- ntq -->
<g id="node4" class="node">
<title>ntq</title>
<ellipse fill="none" stroke="black" cx="40.62" cy="-234" rx="27" ry="18"/>
<text text-anchor="middle" x="40.62" y="-228.95" font-family="Times,serif" font-size="14.00">ntq</text>
</g>
<!-- bvb&#45;&#45;ntq -->
<g id="edge3" class="edge">
<title>bvb&#45;&#45;ntq</title>
<path fill="none" stroke="black" d="M136.53,-434.16C116.31,-412 79.32,-368.12 59.62,-324 49.13,-300.48 44.29,-270.83 42.17,-252.39"/>
</g>
<!-- rhn -->
<g id="node5" class="node">
<title>rhn</title>
<ellipse fill="none" stroke="black" cx="150.62" cy="-234" rx="27" ry="18"/>
<text text-anchor="middle" x="150.62" y="-228.95" font-family="Times,serif" font-size="14.00">rhn</text>
</g>
<!-- bvb&#45;&#45;rhn -->
<g id="edge4" class="edge">
<title>bvb&#45;&#45;rhn</title>
<path fill="none" stroke="black" d="M150.62,-431.85C150.62,-391.78 150.62,-292.38 150.62,-252.23"/>
</g>
<!-- xhk -->
<g id="node6" class="node">
<title>xhk</title>
<ellipse fill="none" stroke="black" cx="95.62" cy="-162" rx="27" ry="18"/>
<text text-anchor="middle" x="95.62" y="-156.95" font-family="Times,serif" font-size="14.00">xhk</text>
</g>
<!-- bvb&#45;&#45;xhk -->
<g id="edge5" class="edge">
<title>bvb&#45;&#45;xhk</title>
<path fill="none" stroke="black" d="M129.69,-438.05C113.32,-428.65 90.84,-413.82 75.62,-396 29.28,-341.74 20.82,-321.49 4.62,-252 0.99,-236.42 -3.35,-229.87 4.62,-216 18.75,-191.43 49.13,-177.18 70.9,-169.77"/>
</g>
<!-- lhk -->
<g id="node7" class="node">
<title>lhk</title>
<ellipse fill="none" stroke="black" cx="370.62" cy="-306" rx="27" ry="18"/>
<text text-anchor="middle" x="370.62" y="-300.95" font-family="Times,serif" font-size="14.00">lhk</text>
</g>
<!-- cmg&#45;&#45;lhk -->
<g id="edge6" class="edge">
<title>cmg&#45;&#45;lhk</title>
<path fill="none" stroke="black" d="M480.87,-365.91C456.34,-352.8 415.77,-331.12 391.28,-318.04"/>
</g>
<!-- nvd -->
<g id="node8" class="node">
<title>nvd</title>
<ellipse fill="none" stroke="black" cx="370.62" cy="-234" rx="27" ry="18"/>
<text text-anchor="middle" x="370.62" y="-228.95" font-family="Times,serif" font-size="14.00">nvd</text>
</g>
<!-- cmg&#45;&#45;nvd -->
<g id="edge7" class="edge">
<title>cmg&#45;&#45;nvd</title>
<path fill="none" stroke="black" d="M487.85,-362.07C462.63,-334.73 409.3,-276.92 384.21,-249.73"/>
</g>
<!-- qnr -->
<g id="node9" class="node">
<title>qnr</title>
<ellipse fill="none" stroke="black" cx="480.62" cy="-162" rx="27" ry="18"/>
<text text-anchor="middle" x="480.62" y="-156.95" font-family="Times,serif" font-size="14.00">qnr</text>
</g>
<!-- cmg&#45;&#45;qnr -->
<g id="edge8" class="edge">
<title>cmg&#45;&#45;qnr</title>
<path fill="none" stroke="black" d="M499.94,-359.85C496.01,-319.78 486.25,-220.38 482.31,-180.23"/>
</g>
<!-- rzs -->
<g id="node10" class="node">
<title>rzs</title>
<ellipse fill="none" stroke="black" cx="438.62" cy="-18" rx="27" ry="18"/>
<text text-anchor="middle" x="438.62" y="-12.95" font-family="Times,serif" font-size="14.00">rzs</text>
</g>
<!-- cmg&#45;&#45;rzs -->
<g id="edge9" class="edge">
<title>cmg&#45;&#45;rzs</title>
<path fill="none" stroke="black" d="M515.92,-362.23C537.93,-337.85 577.62,-286.73 577.62,-235 577.62,-235 577.62,-235 577.62,-161 577.62,-94.94 499.84,-48.25 460.65,-28.92"/>
</g>
<!-- hfx&#45;&#45;ntq -->
<g id="edge15" class="edge">
<title>hfx&#45;&#45;ntq</title>
<path fill="none" stroke="black" d="M183.37,-295.56C151.88,-282.2 94.64,-257.91 63.05,-244.51"/>
</g>
<!-- hfx&#45;&#45;rhn -->
<g id="edge17" class="edge">
<title>hfx&#45;&#45;rhn</title>
<path fill="none" stroke="black" d="M193.42,-289.46C184.3,-277.86 171.9,-262.08 162.8,-250.49"/>
</g>
<!-- hfx&#45;&#45;xhk -->
<g id="edge18" class="edge">
<title>hfx&#45;&#45;xhk</title>
<path fill="none" stroke="black" d="M205.93,-287.61C205.43,-268.36 202.01,-237.24 186.62,-216 170.11,-193.2 140.53,-178.65 119.59,-170.68"/>
</g>
<!-- pzl -->
<g id="node14" class="node">
<title>pzl</title>
<ellipse fill="none" stroke="black" cx="370.62" cy="-162" rx="27" ry="18"/>
<text text-anchor="middle" x="370.62" y="-156.95" font-family="Times,serif" font-size="14.00">pzl</text>
</g>
<!-- hfx&#45;&#45;pzl -->
<g id="edge16" class="edge">
<title>hfx&#45;&#45;pzl</title>
<path fill="none" stroke="black" d="M212.88,-288.3C222.06,-268.82 239.49,-236.65 262.62,-216 287.4,-193.89 323.06,-178.8 346.53,-170.54"/>
</g>
<!-- ntq&#45;&#45;xhk -->
<g id="edge28" class="edge">
<title>ntq&#45;&#45;xhk</title>
<path fill="none" stroke="black" d="M52.83,-217.46C61.94,-205.86 74.35,-190.08 83.45,-178.49"/>
</g>
<!-- rhn&#45;&#45;xhk -->
<g id="edge33" class="edge">
<title>rhn&#45;&#45;xhk</title>
<path fill="none" stroke="black" d="M138.42,-217.46C129.3,-205.86 116.9,-190.08 107.8,-178.49"/>
</g>
<!-- lhk&#45;&#45;nvd -->
<g id="edge24" class="edge">
<title>lhk&#45;&#45;nvd</title>
<path fill="none" stroke="black" d="M370.62,-287.7C370.62,-276.85 370.62,-262.92 370.62,-252.1"/>
</g>
<!-- lsr -->
<g id="node12" class="node">
<title>lsr</title>
<ellipse fill="none" stroke="black" cx="298.62" cy="-234" rx="27" ry="18"/>
<text text-anchor="middle" x="298.62" y="-228.95" font-family="Times,serif" font-size="14.00">lsr</text>
</g>
<!-- lhk&#45;&#45;lsr -->
<g id="edge23" class="edge">
<title>lhk&#45;&#45;lsr</title>
<path fill="none" stroke="black" d="M355.71,-290.5C343.35,-278.48 325.87,-261.49 313.52,-249.49"/>
</g>
<!-- nvd&#45;&#45;qnr -->
<g id="edge30" class="edge">
<title>nvd&#45;&#45;qnr</title>
<path fill="none" stroke="black" d="M389.78,-220.81C409.97,-207.96 441.58,-187.85 461.68,-175.05"/>
</g>
<!-- nvd&#45;&#45;pzl -->
<g id="edge29" class="edge">
<title>nvd&#45;&#45;pzl</title>
<path fill="none" stroke="black" d="M370.62,-215.7C370.62,-204.85 370.62,-190.92 370.62,-180.1"/>
</g>
<!-- qnr&#45;&#45;rzs -->
<g id="edge32" class="edge">
<title>qnr&#45;&#45;rzs</title>
<path fill="none" stroke="black" d="M475.56,-143.87C467.44,-116.43 451.62,-62.95 443.58,-35.75"/>
</g>
<!-- frs -->
<g id="node11" class="node">
<title>frs</title>
<ellipse fill="none" stroke="black" cx="370.62" cy="-378" rx="27" ry="18"/>
<text text-anchor="middle" x="370.62" y="-372.95" font-family="Times,serif" font-size="14.00">frs</text>
</g>
<!-- frs&#45;&#45;hfx -->
<g id="edge10" class="edge">
<title>frs&#45;&#45;hfx</title>
<path fill="none" stroke="black" d="M348.37,-367.56C316.88,-354.2 259.64,-329.91 228.05,-316.51"/>
</g>
<!-- frs&#45;&#45;lhk -->
<g id="edge11" class="edge">
<title>frs&#45;&#45;lhk</title>
<path fill="none" stroke="black" d="M370.62,-359.7C370.62,-348.85 370.62,-334.92 370.62,-324.1"/>
</g>
<!-- frs&#45;&#45;qnr -->
<g id="edge13" class="edge">
<title>frs&#45;&#45;qnr</title>
<path fill="none" stroke="black" d="M391.49,-366.06C407.04,-356.86 427.57,-342.29 439.62,-324 469.78,-278.24 477.76,-211.72 479.87,-180.46"/>
</g>
<!-- frs&#45;&#45;lsr -->
<g id="edge12" class="edge">
<title>frs&#45;&#45;lsr</title>
<path fill="none" stroke="black" d="M359.01,-361.78C351.46,-351.47 341.75,-337.34 334.62,-324 321.75,-299.89 310.59,-270.14 304.24,-251.88"/>
</g>
<!-- rsh -->
<g id="node13" class="node">
<title>rsh</title>
<ellipse fill="none" stroke="black" cx="397.62" cy="-90" rx="27" ry="18"/>
<text text-anchor="middle" x="397.62" y="-84.95" font-family="Times,serif" font-size="14.00">rsh</text>
</g>
<!-- frs&#45;&#45;rsh -->
<g id="edge14" class="edge">
<title>frs&#45;&#45;rsh</title>
<path fill="none" stroke="black" d="M384.37,-362.07C392.58,-352.1 402.24,-338.25 406.62,-324 430.48,-246.42 411.45,-147.44 402.07,-108.17"/>
</g>
<!-- lsr&#45;&#45;rzs -->
<g id="edge27" class="edge">
<title>lsr&#45;&#45;rzs</title>
<path fill="none" stroke="black" d="M298.82,-215.67C299.56,-197.28 302.28,-167.67 311.62,-144 325.93,-107.76 334.02,-99.49 361.62,-72 378.64,-55.05 401.72,-39.99 418.16,-30.29"/>
</g>
<!-- lsr&#45;&#45;rsh -->
<g id="edge26" class="edge">
<title>lsr&#45;&#45;rsh</title>
<path fill="none" stroke="black" d="M302.82,-216.04C308.06,-197.17 318.37,-166.39 334.62,-144 346.63,-127.46 364.88,-112.86 378.65,-103.19"/>
</g>
<!-- lsr&#45;&#45;pzl -->
<g id="edge25" class="edge">
<title>lsr&#45;&#45;pzl</title>
<path fill="none" stroke="black" d="M313.54,-218.5C325.9,-206.48 343.37,-189.49 355.72,-177.49"/>
</g>
<!-- rsh&#45;&#45;rzs -->
<g id="edge34" class="edge">
<title>rsh&#45;&#45;rzs</title>
<path fill="none" stroke="black" d="M407.13,-72.76C413.76,-61.46 422.55,-46.44 429.17,-35.15"/>
</g>
<!-- pzl&#45;&#45;rsh -->
<g id="edge31" class="edge">
<title>pzl&#45;&#45;rsh</title>
<path fill="none" stroke="black" d="M377.16,-144.05C381.4,-133.05 386.91,-118.76 391.15,-107.79"/>
</g>
<!-- jqt -->
<g id="node15" class="node">
<title>jqt</title>
<ellipse fill="none" stroke="black" cx="95.62" cy="-306" rx="27" ry="18"/>
<text text-anchor="middle" x="95.62" y="-300.95" font-family="Times,serif" font-size="14.00">jqt</text>
</g>
<!-- jqt&#45;&#45;ntq -->
<g id="edge19" class="edge">
<title>jqt&#45;&#45;ntq</title>
<path fill="none" stroke="black" d="M83.42,-289.46C74.3,-277.86 61.9,-262.08 52.8,-250.49"/>
</g>
<!-- jqt&#45;&#45;rhn -->
<g id="edge21" class="edge">
<title>jqt&#45;&#45;rhn</title>
<path fill="none" stroke="black" d="M107.83,-289.46C116.94,-277.86 129.35,-262.08 138.45,-250.49"/>
</g>
<!-- jqt&#45;&#45;xhk -->
<g id="edge22" class="edge">
<title>jqt&#45;&#45;xhk</title>
<path fill="none" stroke="black" d="M95.62,-287.59C95.62,-260.19 95.62,-207.32 95.62,-180.11"/>
</g>
<!-- jqt&#45;&#45;nvd -->
<g id="edge20" class="edge">
<title>jqt&#45;&#45;nvd</title>
<path fill="none" stroke="black" d="M120.95,-299.11C135.24,-295.8 153.42,-291.63 169.62,-288 242.87,-271.6 263.57,-276.18 334.62,-252 339.6,-250.31 344.79,-248.12 349.63,-245.88"/>
</g>
</g>
</svg>
